<?xml version="1.0" encoding="UTF-8"?><svg id="Etiquetas" xmlns="http://www.w3.org/2000/svg" viewBox="0 0 122.52 21.66"><defs><style>.cls-1{fill:#188fce;}.cls-2{fill:none;stroke:#178fcf;stroke-miterlimit:10;stroke-width:8px;}.cls-3{fill:#00527f;}</style></defs><rect class="cls-2" x="-30.93" y="-402.95" width="903.16" height="760.82"/><g><path class="cls-1" d="m122.52,11.25h-39.79c-2.87,0-5.33-1.78-6.33-4.3-.71.83-1.76,1.35-2.93,1.35s-2.22-.52-2.93-1.35c-1,2.52-3.46,4.3-6.33,4.3-2.67,0-4.99-1.55-6.11-3.8-1.11,2.25-3.43,3.8-6.11,3.8s-4.99-1.55-6.11-3.8c-1.11,2.25-3.43,3.8-6.11,3.8H0v-1.41h39.79c2.98,0,5.4-2.42,5.4-5.4,0-.39.32-.7.7-.7s.7.32.7.7c0,2.98,2.42,5.4,5.4,5.4s5.4-2.42,5.4-5.4c0-.39.32-.7.7-.7s.7.32.7.7c0,2.98,2.42,5.4,5.4,5.4s5.4-2.42,5.4-5.4c0-.39.32-.7.7-.7s.7.32.7.7c0,1.35,1.1,2.45,2.45,2.45s2.45-1.1,2.45-2.45c0-.39.32-.7.7-.7s.7.32.7.7c0,2.98,2.42,5.4,5.4,5.4h39.79v1.41Z"/><path class="cls-1" d="m46.66.72c0-.4-.32-.72-.72-.72s-.72.32-.72.72.32.72.72.72.72-.32.72-.72"/><path class="cls-1" d="m58.87.72c0-.4-.32-.72-.72-.72s-.72.32-.72.72.32.72.72.72.72-.32.72-.72"/><path class="cls-3" d="m96.97,21.66c.15,0,.29-.03.42-.08s.24-.15.32-.27c.08-.13.12-.29.12-.48,0-.16-.03-.29-.1-.4-.07-.1-.15-.18-.24-.24-.09-.05-.21-.11-.36-.17-.1-.04-.18-.08-.23-.11-.05-.03-.09-.06-.13-.11-.04-.04-.05-.1-.05-.16,0-.06.03-.11.08-.15.05-.04.14-.07.28-.07.1,0,.2.02.29.05.02,0,.05.02.07.03.03.01.05.02.06.02.03,0,.06-.02.09-.06.03-.04.06-.09.08-.14s.03-.1.03-.13c0-.04-.03-.08-.08-.12-.06-.04-.15-.08-.25-.11-.11-.03-.22-.04-.35-.04-.16,0-.31.03-.44.08-.14.06-.25.14-.34.26-.09.12-.13.26-.13.43,0,.21.05.37.14.48.09.11.22.21.38.29l.18.08c.15.06.25.11.32.16.07.05.1.11.1.19,0,.1-.04.17-.11.21-.07.04-.16.06-.25.06-.09,0-.17-.01-.23-.03-.07-.02-.14-.05-.22-.1-.06-.03-.09-.05-.11-.05-.03,0-.06.02-.1.06-.04.04-.07.09-.1.14-.03.05-.04.1-.04.14,0,.05.04.1.11.15.08.06.18.1.32.14.14.04.29.05.48.05m-2.58-1.08l.23-.68s.03-.09.04-.14c0-.05.01-.09.02-.1h.02c.02.11.04.19.06.25l.22.68h-.57Zm-.65,1.05h.15c.1,0,.16-.03.18-.08l.15-.47h.9l.15.47c.02.05.09.08.21.08h.17c.13,0,.19-.03.19-.08,0-.02,0-.04-.01-.07l-.84-2.46c-.02-.05-.09-.08-.22-.08h-.2c-.13,0-.2.03-.22.08l-.84,2.46s-.02.06-.02.07c0,.06.08.08.23.08m-2.26-2.91s.04,0,.05,0c.04,0,.07-.02.1-.07.04-.04.08-.06.13-.06.05,0,.13.02.25.05.02,0,.06.01.13.03.07.02.13.03.17.03.1,0,.19-.03.26-.08.07-.05.13-.12.15-.19,0-.02.01-.03.01-.05,0-.05-.03-.09-.09-.1h-.04s-.03-.02-.05-.02c-.04,0-.07.02-.11.07-.04.04-.08.06-.13.06-.05,0-.13-.02-.25-.05-.02,0-.06-.01-.13-.03-.07-.02-.13-.03-.17-.03-.1,0-.19.03-.26.08-.07.05-.13.12-.15.19,0,.02,0,.04,0,.05,0,.05.03.09.08.1h.04Zm-.29,2.92h.11c.15,0,.23-.04.23-.12v-1.29c0-.11,0-.2,0-.26h.02c.04.07.09.15.14.22l.88,1.35s.06.07.1.08c.04.01.09.02.15.02h.15c.15,0,.23-.04.23-.12v-2.45c0-.08-.08-.12-.23-.12h-.11c-.15,0-.23.04-.23.12v1.27c0,.11,0,.2,0,.26h-.02c-.04-.07-.09-.15-.14-.22l-.86-1.33s-.06-.07-.1-.08c-.04-.01-.09-.02-.15-.02h-.16c-.15,0-.23.04-.23.12v2.45c0,.08.08.12.23.12m-1.15,0h.13c.15,0,.23-.04.23-.13v-2.45c0-.08-.08-.13-.23-.13h-.13c-.15,0-.23.04-.23.13v2.45c0,.08.08.13.23.13m-2.01-1.57v-.62h.34c.1,0,.18.03.24.08.06.05.09.12.09.21s-.03.17-.09.23c-.06.06-.13.1-.21.1h-.36Zm-.36,1.57h.13c.15,0,.23-.04.23-.12v-.94h.15c.11,0,.2.02.25.05.05.03.1.09.14.18l.3.75c.02.05.1.08.22.08h.16c.08,0,.13,0,.17-.02.04-.01.06-.03.06-.06,0-.02,0-.04-.02-.07l-.34-.84c-.03-.08-.08-.16-.13-.22-.05-.07-.1-.11-.15-.13v-.02c.14-.05.25-.13.33-.24.08-.11.12-.23.12-.37,0-.48-.32-.72-.95-.72h-.75c-.05,0-.09.01-.12.04-.02.02-.04.06-.04.12v2.41c0,.08.08.12.23.12m-2.01-1.05l.23-.68s.03-.09.04-.14c0-.05.01-.09.02-.1h.02c.02.11.04.19.06.25l.22.68h-.57Zm-.65,1.05h.15c.1,0,.16-.03.18-.08l.15-.47h.9l.15.47c.02.05.09.08.21.08h.17c.13,0,.19-.03.19-.08,0-.02,0-.04-.01-.07l-.84-2.46c-.02-.05-.09-.08-.22-.08h-.2c-.13,0-.2.03-.22.08l-.84,2.46s-.02.06-.02.07c0,.06.08.08.23.08m-1.96-.65h.11c.07,0,.12-.02.15-.07l.47-.84c.03-.06.06-.11.08-.15h.02v1.59c0,.08.08.12.23.12h.11c.15,0,.23-.04.23-.12v-2.45c0-.08-.08-.12-.23-.12h-.2c-.12,0-.2.03-.24.1l-.65,1.13-.03.07-.04-.07-.64-1.13c-.04-.07-.12-.1-.24-.1h-.2c-.15,0-.23.04-.23.12v2.45c0,.08.08.12.23.12h.11c.15,0,.23-.04.23-.12v-1.59h.02s.05.09.08.15l.47.84s.09.07.15.07m-3.49.67c.15,0,.29-.03.42-.08s.24-.15.32-.27c.08-.13.12-.29.12-.48,0-.16-.03-.29-.1-.4-.07-.1-.15-.18-.24-.24-.09-.05-.21-.11-.36-.17-.1-.04-.18-.08-.23-.11-.05-.03-.09-.06-.13-.11-.04-.04-.05-.1-.05-.16,0-.06.03-.11.08-.15.05-.04.14-.07.28-.07.1,0,.2.02.29.05.02,0,.05.02.07.03.03.01.05.02.06.02.03,0,.06-.02.09-.06.03-.04.06-.09.08-.14s.03-.1.03-.13c0-.04-.03-.08-.08-.12-.06-.04-.15-.08-.25-.11-.11-.03-.22-.04-.35-.04-.16,0-.31.03-.44.08-.14.06-.25.14-.34.26-.09.12-.13.26-.13.43,0,.21.05.37.14.48.09.11.22.21.38.29l.18.08c.15.06.25.11.32.16.07.05.1.11.1.19,0,.1-.04.17-.11.21-.07.04-.16.06-.25.06-.09,0-.17-.01-.23-.03-.07-.02-.14-.05-.22-.1-.06-.03-.09-.05-.11-.05-.03,0-.06.02-.1.06-.04.04-.07.09-.1.14-.03.05-.04.1-.04.14,0,.05.04.1.11.15.08.06.18.1.32.14.14.04.29.05.48.05m-3.3-.02h.11c.15,0,.23-.04.23-.12v-1.29c0-.11,0-.2,0-.26h.02c.04.07.09.15.14.22l.88,1.35s.06.07.1.08c.04.01.09.02.15.02h.15c.15,0,.23-.04.23-.12v-2.45c0-.08-.08-.12-.23-.12h-.11c-.15,0-.23.04-.23.12v1.27c0,.11,0,.2,0,.26h-.02c-.04-.07-.09-.15-.14-.22l-.86-1.33s-.06-.07-.1-.08c-.04-.01-.09-.02-.15-.02h-.16c-.15,0-.23.04-.23.12v2.45c0,.08.08.12.23.12m-1.99-2.89c.08,0,.14,0,.19-.03.04-.02.08-.04.1-.07.04-.05.13-.14.26-.28.06-.07.1-.11.12-.13s.02-.04.02-.05c0-.02-.02-.03-.06-.04-.04,0-.1-.01-.17-.01-.18,0-.29.03-.33.1,0,.01-.06.1-.16.27-.03.05-.05.08-.07.11-.02.03-.02.05-.02.07,0,.02,0,.04.02.04.02,0,.05.01.09.01m.08,2.41c-.2,0-.36-.07-.47-.22-.11-.15-.16-.36-.16-.65s.05-.5.16-.65c.11-.15.26-.22.47-.22s.36.07.46.22c.1.15.16.36.16.65s-.05.5-.16.65c-.1.15-.26.22-.46.22m0,.5c.4,0,.7-.12.91-.35.21-.24.32-.58.32-1.02s-.11-.78-.32-1.02c-.21-.24-.51-.35-.91-.35s-.7.12-.91.35c-.21.24-.32.58-.32,1.02s.11.78.32,1.02c.21.24.52.35.91.35m-2.05-.02h.13c.15,0,.23-.04.23-.13v-2.45c0-.08-.08-.13-.23-.13h-.13c-.15,0-.23.04-.23.13v2.45c0,.08.08.13.23.13m-1.43.02c.12,0,.25-.01.39-.04.14-.02.25-.06.33-.11.09-.05.13-.11.13-.18,0-.03-.01-.07-.03-.12-.02-.05-.05-.1-.08-.15-.03-.04-.07-.07-.11-.07-.02,0-.04.01-.08.03-.08.04-.16.07-.25.09s-.18.03-.3.03c-.44,0-.66-.29-.66-.87,0-.29.05-.5.16-.65.11-.14.28-.21.5-.21.11,0,.2,0,.28.03.08.02.14.04.2.06.05.02.08.03.09.03.03,0,.07-.02.11-.07.04-.04.07-.1.1-.15.03-.06.04-.1.04-.14,0-.04-.03-.08-.1-.12-.07-.04-.18-.08-.31-.11-.13-.03-.26-.04-.39-.04-.85,0-1.28.45-1.28,1.36,0,.47.1.82.31,1.04.21.22.52.34.95.34m-2.87-1.08l.23-.68s.03-.09.04-.14c0-.05.01-.09.02-.1h.02c.02.11.04.19.06.25l.22.68h-.57Zm-.65,1.05h.15c.1,0,.16-.03.18-.08l.15-.47h.9l.15.47c.02.05.09.08.21.08h.17c.13,0,.19-.03.19-.08,0-.02,0-.04-.01-.07l-.84-2.46c-.02-.05-.09-.08-.22-.08h-.2c-.13,0-.2.03-.22.08l-.84,2.46s-.02.06-.02.07c0,.06.08.08.23.08m-.68-1.5h-.78s-.07.02-.09.05c-.02.03-.03.08-.03.15v.12c0,.07,0,.11.03.15.02.03.05.05.09.05h.34v.49c-.1.02-.2.03-.3.03-.44,0-.66-.29-.66-.87,0-.29.05-.5.16-.65.11-.14.28-.21.5-.21.11,0,.2,0,.28.03.08.02.15.04.21.06.06.02.09.03.1.03.03,0,.07-.02.11-.07.04-.04.07-.1.1-.15.03-.06.04-.1.04-.14,0-.05-.04-.1-.13-.14-.09-.04-.19-.07-.32-.1-.13-.02-.25-.03-.37-.03-.85,0-1.28.45-1.28,1.36,0,.47.1.82.31,1.04.21.22.52.34.95.34.21,0,.41-.02.61-.07.19-.04.29-.12.29-.24v-1.07c0-.05-.01-.09-.04-.12-.02-.02-.06-.04-.12-.04m-2.82,1.5h.13c.15,0,.23-.04.23-.13v-2.45c0-.08-.08-.13-.23-.13h-.13c-.15,0-.23.04-.23.13v2.45c0,.08.08.13.23.13m-1.64,0h.13c.15,0,.23-.04.23-.12v-2.07h.61s.07-.02.09-.05c.02-.03.03-.08.03-.15v-.12c0-.07,0-.11-.03-.15-.02-.03-.05-.05-.09-.05h-1.81s-.07.02-.09.05c-.02.03-.03.08-.03.15v.12c0,.07,0,.11.03.15.02.03.05.05.09.05h.61v2.07c0,.08.08.12.23.12m-1.99.02c.15,0,.29-.03.42-.08.13-.06.24-.15.32-.27.08-.13.12-.29.12-.48,0-.16-.03-.29-.1-.4-.07-.1-.15-.18-.24-.24-.09-.05-.21-.11-.36-.17-.1-.04-.18-.08-.23-.11-.05-.03-.09-.06-.13-.11-.04-.04-.05-.1-.05-.16,0-.06.03-.11.08-.15.05-.04.14-.07.28-.07.1,0,.2.02.29.05.02,0,.05.02.07.03.03.01.05.02.06.02.03,0,.06-.02.09-.06.03-.04.06-.09.08-.14.02-.05.03-.1.03-.13,0-.04-.03-.08-.08-.12-.06-.04-.15-.08-.25-.11-.11-.03-.22-.04-.35-.04-.16,0-.31.03-.44.08-.14.06-.25.14-.34.26-.09.12-.13.26-.13.43,0,.21.05.37.14.48.09.11.22.21.38.29l.18.08c.15.06.25.11.32.16.07.05.1.11.1.19,0,.1-.04.17-.11.21-.07.04-.16.06-.25.06-.09,0-.17-.01-.23-.03-.07-.02-.14-.05-.22-.1-.06-.03-.09-.05-.11-.05-.03,0-.06.02-.1.06-.04.04-.07.09-.1.14-.03.05-.04.1-.04.14,0,.05.04.1.11.15.08.06.18.1.32.14.14.04.29.05.48.05m-2.68-.03h1.35s.07-.02.09-.05c.02-.03.03-.08.03-.15v-.12c0-.07,0-.11-.03-.15-.02-.03-.05-.05-.09-.05h-.91v-.62h.8s.07-.02.09-.05c.02-.03.03-.08.03-.15v-.12c0-.07,0-.11-.03-.15-.02-.03-.05-.05-.09-.05h-.8v-.56h.91s.07-.02.09-.05c.02-.03.03-.08.03-.15v-.12c0-.07,0-.11-.03-.15-.02-.03-.05-.05-.09-.05h-1.35c-.05,0-.09.01-.12.04-.02.02-.04.06-.04.12v2.38c0,.05.01.09.04.12.02.02.06.04.12.04m-1.75,0h.2c.13,0,.2-.03.21-.08l.83-2.46s.01-.05.01-.07c0-.06-.08-.08-.23-.08h-.12c-.13,0-.2.04-.23.11l-.53,1.66-.04.13h-.02l-.04-.13-.52-1.66c-.02-.07-.1-.11-.23-.11h-.13c-.16,0-.23.03-.23.08,0,.01,0,.03.02.07l.83,2.46c.02.05.09.08.21.08m-3.38,0h.11c.15,0,.23-.04.23-.12v-1.29c0-.11,0-.2,0-.26h.02c.04.07.09.15.14.22l.88,1.35s.06.07.1.08c.04.01.09.02.15.02h.15c.15,0,.23-.04.23-.12v-2.45c0-.08-.08-.12-.23-.12h-.11c-.15,0-.23.04-.23.12v1.27c0,.11,0,.2,0,.26h-.02c-.04-.07-.09-.15-.14-.22l-.86-1.33s-.06-.07-.1-.08c-.04-.01-.09-.02-.15-.02h-.16c-.15,0-.23.04-.23.12v2.45c0,.08.08.12.23.12m-1.15,0h.13c.15,0,.23-.04.23-.13v-2.45c0-.08-.08-.13-.23-.13h-.13c-.15,0-.23.04-.23.13v2.45c0,.08.08.13.23.13m-3.12-.01h1.35s.07-.02.09-.05c.02-.03.03-.08.03-.15v-.12c0-.07,0-.11-.03-.15-.02-.03-.05-.05-.09-.05h-.91v-.62h.8s.07-.02.09-.05c.02-.03.03-.08.03-.15v-.12c0-.07,0-.11-.03-.15-.02-.03-.05-.05-.09-.05h-.8v-.56h.91s.07-.02.09-.05c.02-.03.03-.08.03-.15v-.12c0-.07,0-.11-.03-.15-.02-.03-.05-.05-.09-.05h-1.35c-.05,0-.09.01-.12.04-.02.02-.04.06-.04.12v2.38c0,.05.01.09.04.12.02.02.06.04.12.04m-2.23-.5v-1.68h.38c.2,0,.36.07.46.21.1.14.16.35.16.62s-.05.48-.16.62c-.1.14-.26.21-.46.21h-.38Zm-.44.5h.82c.4,0,.7-.12.91-.35.21-.23.32-.56.32-.99s-.11-.76-.32-.99c-.21-.23-.51-.35-.91-.35h-.82c-.05,0-.09.01-.12.04-.02.02-.04.06-.04.12v2.38c0,.05.01.09.04.12.02.02.06.04.12.04m-2.84-.47c-.2,0-.36-.07-.47-.22-.11-.15-.16-.36-.16-.65s.05-.5.16-.65c.11-.15.26-.22.47-.22s.36.07.46.22c.1.15.16.36.16.65s-.05.5-.16.65c-.1.15-.26.22-.46.22m0,.5c.4,0,.7-.12.91-.35.21-.24.32-.58.32-1.02s-.11-.78-.32-1.02c-.21-.24-.51-.35-.91-.35s-.7.12-.91.35c-.21.24-.32.58-.32,1.02s.11.78.32,1.02c.21.24.52.35.91.35m-2.5-.02h.13c.15,0,.23-.04.23-.12v-2.07h.61s.07-.02.09-.05c.02-.03.03-.08.03-.15v-.12c0-.07,0-.11-.03-.15-.02-.03-.05-.05-.09-.05h-1.81s-.07.02-.09.05c-.02.03-.03.08-.03.15v.12c0,.07,0,.11.03.15.02.03.05.05.09.05h.61v2.07c0,.08.08.12.23.12m-2.39.02c.35,0,.63-.08.82-.24.19-.16.29-.39.29-.68v-1.67c0-.08-.08-.12-.23-.12h-.13c-.15,0-.23.04-.23.12v1.63c0,.14-.05.25-.15.33-.1.09-.22.13-.38.13s-.28-.04-.38-.13c-.1-.09-.15-.2-.15-.33v-1.63c0-.08-.08-.12-.23-.12h-.13c-.15,0-.23.04-.23.12v1.67c0,.29.1.52.29.68.19.16.47.24.82.24m-2.52-.02h.13c.15,0,.23-.04.23-.12v-2.07h.61s.07-.02.09-.05c.02-.03.03-.08.03-.15v-.12c0-.07,0-.11-.03-.15-.02-.03-.05-.05-.09-.05h-1.81s-.07.02-.09.05c-.02.03-.03.08-.03.15v.12c0,.07,0,.11.03.15.02.03.05.05.09.05h.61v2.07c0,.08.08.12.23.12m-1.64,0h.13c.15,0,.23-.04.23-.13v-2.45c0-.08-.08-.13-.23-.13h-.13c-.15,0-.23.04-.23.13v2.45c0,.08.08.13.23.13m-1.64,0h.13c.15,0,.23-.04.23-.12v-2.07h.61s.07-.02.09-.05c.02-.03.03-.08.03-.15v-.12c0-.07,0-.11-.03-.15-.02-.03-.05-.05-.09-.05h-1.81s-.07.02-.09.05c-.02.03-.03.08-.03.15v.12c0,.07,0,.11.03.15.02.03.05.05.09.05h.61v2.07c0,.08.08.12.23.12m-1.99.02c.15,0,.29-.03.42-.08s.24-.15.32-.27c.08-.13.12-.29.12-.48,0-.16-.03-.29-.1-.4-.07-.1-.15-.18-.24-.24-.09-.05-.21-.11-.36-.17-.1-.04-.17-.08-.23-.11-.05-.03-.09-.06-.13-.11-.04-.04-.05-.1-.05-.16,0-.06.03-.11.08-.15.05-.04.15-.07.28-.07.1,0,.2.02.29.05.02,0,.05.02.07.03.03.01.05.02.06.02.03,0,.06-.02.09-.06.03-.04.06-.09.08-.14.02-.05.03-.1.03-.13,0-.04-.03-.08-.08-.12-.06-.04-.14-.08-.25-.11-.11-.03-.22-.04-.35-.04-.16,0-.31.03-.44.08-.14.06-.25.14-.34.26-.09.12-.13.26-.13.43,0,.21.05.37.14.48.09.11.22.21.38.29l.18.08c.15.06.25.11.32.16.07.05.1.11.1.19,0,.1-.04.17-.11.21-.07.04-.16.06-.25.06-.09,0-.17-.01-.23-.03-.07-.02-.14-.05-.22-.1-.06-.03-.09-.05-.11-.05-.03,0-.06.02-.1.06-.04.04-.07.09-.1.14-.03.05-.04.1-.04.14,0,.05.04.1.11.15.08.06.18.1.32.14.14.04.29.05.48.05m-3.3-.02h.11c.15,0,.23-.04.23-.12v-1.29c0-.11,0-.2,0-.26h.02c.04.07.09.15.14.22l.88,1.35s.06.07.1.08c.04.01.09.02.15.02h.15c.15,0,.23-.04.23-.12v-2.45c0-.08-.08-.12-.23-.12h-.11c-.15,0-.23.04-.23.12v1.27c0,.11,0,.2,0,.26h-.02c-.04-.07-.09-.15-.14-.22l-.86-1.33s-.06-.07-.1-.08c-.04-.01-.09-.02-.15-.02h-.16c-.15,0-.23.04-.23.12v2.45c0,.08.08.12.23.12m-1.15,0h.13c.15,0,.23-.04.23-.13v-2.45c0-.08-.08-.13-.23-.13h-.13c-.15,0-.23.04-.23.13v2.45c0,.08.08.13.23.13"/></g></svg>